<svg xmlns="http://www.w3.org/2000/svg" width="1024" height="1024" viewBox="0 0 1024 1024" role="img">
<title>AGM App Icon — no Chinese text for small-size clarity</title>
<defs>
  <linearGradient id="agm-gradient" x1="0%" y1="0%" x2="100%" y2="0%">
    <stop offset="0%" stop-color="#2F80FF"/>
    <stop offset="54%" stop-color="#4B63FF"/>
    <stop offset="100%" stop-color="#7A35FF"/>
  </linearGradient>
  <linearGradient id="agm-gradient-bg" x1="0%" y1="0%" x2="100%" y2="100%">
    <stop offset="0%" stop-color="#2F80FF"/>
    <stop offset="100%" stop-color="#7A35FF"/>
  </linearGradient>
  <filter id="soft-shadow" x="-20%" y="-20%" width="140%" height="140%">
    <feDropShadow dx="0" dy="18" stdDeviation="18" flood-color="#000000" flood-opacity="0.18"/>
  </filter>
</defs>
<rect width="1024" height="1024" rx="224" fill="#070A0F"/>
<g id="agm-wordmark">
  <path id="agm-a" d="M180.129 576 L269.004 398 L298.254 398 L242.004 576 Z M273.504 398 L302.754 398 L391.629 576 L336.504 576 Z M242.004 529.72 L308.379 529.72 L326.379 559.98 L258.879 559.98 Z" fill="#FFFFFF"/>
  <path id="agm-g" d="M527.462 576 C573.61 576 605.462 546.481 605.462 502.741 L605.462 479.37 L530.24 479.37 L530.24 509.926 L564.721 509.926 C564.351 527.741 550.61 539.667 528.721 539.667 C501.536 539.667 486.018 520.222 486.018 487.111 C486.018 453.889 501.388 434.333 528.24 434.333 C546.907 434.333 558.684 444.037 561.833 459.333 L604.166 459.333 C600.351 422.63 567.388 398 526.758 398 C479.87 398 444.129 430.741 444.129 487.111 C444.129 540.926 477.314 576 527.462 576 Z" fill="url(#agm-gradient)"/>
  <path id="agm-m" d="M653.462 576 L695.63 576 L695.63 498.928 C695.63 487.229 694.789 465.859 694.33 445.405 C700.18 466.203 706.143 487.459 709.852 498.928 L735.887 576 L770.676 576 L796.214 498.928 C800.037 487 806.154 464.635 812.118 443.035 C811.659 464.177 810.703 486.771 810.703 498.928 L810.703 576 L852.871 576 L852.871 398 L789.18 398 L766.471 467.885 C763.145 479.239 757.754 498.813 753.358 515.673 C748.923 498.813 743.418 479.239 739.977 467.885 L717.039 398 L653.462 398 L653.462 576 Z" fill="#FFFFFF"/>
</g>
</svg>