<svg xmlns="http://www.w3.org/2000/svg" width="1024" height="1024" viewBox="0 0 1024 1024" role="img" aria-label="AGM favicon compact AG">
<title>AGM Compact AG Favicon</title>
<defs>
  <linearGradient id="agm-gradient" x1="0%" y1="0%" x2="100%" y2="0%">
    <stop offset="0%" stop-color="#2F80FF"/>
    <stop offset="54%" stop-color="#4B63FF"/>
    <stop offset="100%" stop-color="#7A35FF"/>
  </linearGradient>
  <linearGradient id="agm-gradient-bg" x1="0%" y1="0%" x2="100%" y2="100%">
    <stop offset="0%" stop-color="#2F80FF"/>
    <stop offset="100%" stop-color="#7A35FF"/>
  </linearGradient>
  <filter id="soft-shadow" x="-20%" y="-20%" width="140%" height="140%">
    <feDropShadow dx="0" dy="18" stdDeviation="18" flood-color="#000000" flood-opacity="0.18"/>
  </filter>
</defs>
<rect width="1024" height="1024" rx="224" fill="#070A0F"/>
<g transform="translate(-12,0) scale(1.18 1.18) translate(-75,-78)">
<path id="agm-a" d="M180.129 576 L269.004 398 L298.254 398 L242.004 576 Z M273.504 398 L302.754 398 L391.629 576 L336.504 576 Z M242.004 529.72 L308.379 529.72 L326.379 559.98 L258.879 559.98 Z" fill="#FFFFFF"/>
<path id="agm-g" d="M527.462 576 C573.61 576 605.462 546.481 605.462 502.741 L605.462 479.37 L530.24 479.37 L530.24 509.926 L564.721 509.926 C564.351 527.741 550.61 539.667 528.721 539.667 C501.536 539.667 486.018 520.222 486.018 487.111 C486.018 453.889 501.388 434.333 528.24 434.333 C546.907 434.333 558.684 444.037 561.833 459.333 L604.166 459.333 C600.351 422.63 567.388 398 526.758 398 C479.87 398 444.129 430.741 444.129 487.111 C444.129 540.926 477.314 576 527.462 576 Z" fill="url(#agm-gradient)"/>
</g>
</svg>